<svg xmlns="http://www.w3.org/2000/svg" xmlns:xlink="http://www.w3.org/1999/xlink" version="1.0" x="0" y="0" width="2400" height="553.2395919519586" viewBox="66.75050918579102 101.1992854309082 206.49899688720703 47.601425323486325" preserveAspectRatio="xMidYMid meet" color-interpolation-filters="sRGB"><g><defs><linearGradient id="92" x1="0%" y1="0%" x2="100%" y2="0%"><stop offset="0%" stop-color="#fa71cd"></stop> <stop offset="100%" stop-color="#9b59b6"></stop></linearGradient><linearGradient id="93" x1="0%" y1="0%" x2="100%" y2="0%"><stop offset="0%" stop-color="#f9d423"></stop> <stop offset="100%" stop-color="#f83600"></stop></linearGradient><linearGradient id="94" x1="0%" y1="0%" x2="100%" y2="0%"><stop offset="0%" stop-color="#0064d2"></stop> <stop offset="100%" stop-color="#1cb0f6"></stop></linearGradient><linearGradient id="95" x1="0%" y1="0%" x2="100%" y2="0%"><stop offset="0%" stop-color="#f00978"></stop> <stop offset="100%" stop-color="#3f51b1"></stop></linearGradient><linearGradient id="96" x1="0%" y1="0%" x2="100%" y2="0%"><stop offset="0%" stop-color="#7873f5"></stop> <stop offset="100%" stop-color="#ec77ab"></stop></linearGradient><linearGradient id="97" x1="0%" y1="0%" x2="100%" y2="0%"><stop offset="0%" stop-color="#f9d423"></stop> <stop offset="100%" stop-color="#e14fad"></stop></linearGradient><linearGradient id="98" x1="0%" y1="0%" x2="100%" y2="0%"><stop offset="0%" stop-color="#009efd"></stop> <stop offset="100%" stop-color="#2af598"></stop></linearGradient><linearGradient id="99" x1="0%" y1="0%" x2="100%" y2="0%"><stop offset="0%" stop-color="#ffcc00"></stop> <stop offset="100%" stop-color="#00b140"></stop></linearGradient><linearGradient id="100" x1="0%" y1="0%" x2="100%" y2="0%"><stop offset="0%" stop-color="#d51007"></stop> <stop offset="100%" stop-color="#ff8177"></stop></linearGradient><linearGradient id="102" x1="0%" y1="0%" x2="100%" y2="0%"><stop offset="0%" stop-color="#a2b6df"></stop> <stop offset="100%" stop-color="#0c3483"></stop></linearGradient><linearGradient id="103" x1="0%" y1="0%" x2="100%" y2="0%"><stop offset="0%" stop-color="#7ac5d8"></stop> <stop offset="100%" stop-color="#eea2a2"></stop></linearGradient><linearGradient id="104" x1="0%" y1="0%" x2="100%" y2="0%"><stop offset="0%" stop-color="#00ecbc"></stop> <stop offset="100%" stop-color="#007adf"></stop></linearGradient><linearGradient id="105" x1="0%" y1="0%" x2="100%" y2="0%"><stop offset="0%" stop-color="#b88746"></stop> <stop offset="100%" stop-color="#fdf5a6"></stop></linearGradient></defs><g fill="#333333" class="icon-text-wrapper icon-svg-group iconsvg" transform="translate(68.77500152709024,103.22378730773926)"><g class="iconsvg-imagesvg" transform="translate(0,0)"><g><rect fill="#333333" fill-opacity="0" stroke-width="2" x="0" y="0" width="60" height="43.552426233078066" class="image-rect"></rect> <svg x="0" y="0" width="60" height="43.552426233078066" filtersec="colorsb3724850620" class="image-svg-svg primary" style="overflow: visible;"><svg xmlns="http://www.w3.org/2000/svg" viewBox="0.050200462341308594 -0.01689004898071289 184.5216827392578 133.93942260742188"><path d="M88.59 54.21c18.92 0 37.85-.31 56.75.18 7.23.18 11.57-1.51 12.61-9.17.32-2.33.77-5.59 3.7-6 2.39-.36 3.77 2.28 5.11 4 5.39 7 10.59 14.12 16 21.1 2.71 3.51 2.47 6.08-1.33 8.75-10.72 7.53-21.26 15.33-31.9 23-1.56 1.12-3.27 3.12-5.31 1.55s-.58-3.69-.34-5.65c.34-2.78 3.94-6.7-1.7-7.83-4.42-.89-8.51-.28-10 5.34-3 11.45-6.63 22.74-9.52 34.22-1.79 7.15-5.19 10.75-13.14 10.16-8.53-.63-17.14-.08-25.72-.17s-9.19-1-6.72-9.42q4.71-15.94 9.64-31.82c2.25-7.24 1.51-8.64-6.12-8.53-27.08.37-21.17-4.07-28.55 21-2.2 7.49-4.62 14.92-6.77 22.42-1.19 4.17-3.43 6.42-8 6.35-10.59-.15-21.19-.09-31.78 0-4.86 0-6.29-2.32-5-6.77C7.06 104.43 13.7 82 20.23 59.46c1.32-4.54 4.26-5.38 8.58-5.33 19.92.18 39.85.08 59.78.08z" fill="#fabe00"></path><path d="M123.16 45.89h-15.85c-4.6.05-6.42-1.48-4.9-6.44 3.25-10.57 6.18-21.23 9-31.92 1.33-5.07 3.85-7.7 9.47-7.54 10.06.3 20.12.21 30.19.01 5.38-.09 7.46 1.79 5.74 7.26q-5.33 16.88-10.33 33.87c-1 3.54-3.33 4.75-6.71 4.73-5.54.01-11.08.03-16.61.03zM47.83 45.89h-16.6c-4.05 0-6.16-1.26-4.74-6Q31.5 23.31 36 6.56C37.2 1.92 39.86 0 44.61 0c10.31.15 20.63.12 30.94 0 4.84 0 7.19 1.57 5.56 6.79q-5.35 17.27-10.52 34.6c-1.08 3.63-3.63 4.46-6.91 4.44-5.28.05-10.57.07-15.85.06z" fill="#ea5504"></path></svg></svg> </g></g> <g transform="translate(68,7.3262128829956055)"><g fill-rule="" class="tp-name iconsvg-namesvg"><g transform="scale(1)"><g><path d="M5.77 0L2.97 0 2.97-21.9 5.77-21.9 5.77-12.71 15.98-12.71 15.98-21.9 18.72-21.9 18.72 0 15.98 0 15.98-10.32 5.77-10.32 5.77 0ZM22.72 7L22.72 7Q21.67 7 20.83 6.65L20.83 6.65 21.35 4.49Q22.08 4.75 22.58 4.75L22.58 4.75Q25.09 4.69 26.25 1.25L26.25 1.25 26.63 0.03 20.1-16.21 22.96-16.21 26.25-7.2Q26.51-6.41 27.13-4.69L27.13-4.69Q27.62-3.29 27.83-2.65L27.83-2.65 27.97-2.65Q29.05-6.27 29.34-7.2L29.34-7.2 32.23-16.21 34.88-16.21 28.76 1.34Q27.16 5.83 24.44 6.74L24.44 6.74Q23.63 7 22.72 7ZM38.71 6.82L36 6.82 36-16.21 38.25-16.21 38.48-14.37 38.57-14.37Q41.31-16.59 43.73-16.62L43.73-16.62Q47.64-16.62 49.27-13.12L49.27-13.12Q50.2-11.17 50.2-8.37L50.2-8.37Q50.2-3.73 47.43-1.28L47.43-1.28Q45.57 0.38 43.15 0.38L43.15 0.38Q40.93 0.35 38.66-1.49L38.66-1.49 38.71 1.34 38.71 6.82ZM42.71-1.9L42.71-1.9Q45.19-1.9 46.47-4.32L46.47-4.32Q47.34-5.98 47.34-8.34L47.34-8.34Q47.29-14.32 43.09-14.34L43.09-14.34Q41.1-14.32 38.71-12.1L38.71-12.1 38.71-3.59Q40.7-1.9 42.71-1.9ZM59.02 0.38L59.02 0.38Q55.37 0.38 53.19-2.25L53.19-2.25Q51.26-4.58 51.26-8.11L51.26-8.11Q51.26-12.3 53.94-14.75L53.94-14.75Q55.99-16.62 58.58-16.62L58.58-16.62Q62.52-16.62 64.15-13.32L64.15-13.32Q65.02-11.49 65.02-9.01L65.02-9.01Q65.02-8.22 64.91-7.46L64.91-7.46 53.97-7.46Q54.15-4.08 56.48-2.59L56.48-2.59Q57.73-1.78 59.37-1.78L59.37-1.78Q61.55-1.81 63.42-3.06L63.42-3.06 64.41-1.28Q61.85 0.38 59.02 0.38ZM53.94-9.42L53.94-9.42 62.63-9.42Q62.63-13.47 59.89-14.29L59.89-14.29Q59.28-14.46 58.61-14.46L58.61-14.46Q56.31-14.46 54.97-12.42L54.97-12.42Q54.12-11.14 53.94-9.42ZM69.73 0L67.02 0 67.02-16.21 69.26-16.21 69.5-13.27 69.58-13.27Q71.19-16.15 73.55-16.56L73.55-16.56Q73.87-16.62 74.19-16.62L74.19-16.62Q75.27-16.62 75.91-16.27L75.91-16.27 75.42-13.88Q74.72-14.14 73.84-14.14L73.84-14.14Q71.86-14.14 70.43-11.84L70.43-11.84Q70.05-11.2 69.73-10.41L69.73-10.41 69.73 0ZM90.41 0L75.34 0 75.34-1.63 86.89-19.56 76.39-19.56 76.39-21.9 90.3-21.9 90.3-20.26 78.75-2.36 90.41-2.36 90.41 0ZM98.88 0.38L98.88 0.38Q95.61 0.38 93.46-2.04L93.46-2.04Q91.36-4.43 91.36-8.11L91.36-8.11Q91.36-12.54 94.22-14.96L94.22-14.96Q96.26-16.62 98.88-16.62L98.88-16.62Q102.17-16.62 104.33-14.17L104.33-14.17Q106.4-11.78 106.4-8.11L106.4-8.11Q106.4-3.7 103.55-1.31L103.55-1.31Q101.53 0.38 98.88 0.38ZM98.88-1.9L98.88-1.9Q101.45-1.9 102.76-4.32L102.76-4.32Q103.6-5.92 103.6-8.11L103.6-8.11Q103.6-11.69 101.56-13.41L101.56-13.41Q100.4-14.37 98.88-14.37L98.88-14.37Q96.34-14.37 95.06-11.92L95.06-11.92Q94.22-10.32 94.22-8.11L94.22-8.11Q94.22-4.4 96.31-2.77L96.31-2.77Q97.42-1.9 98.88-1.9ZM111.37 0L108.66 0 108.66-16.21 110.9-16.21 111.14-13.88 111.22-13.88Q113.88-16.47 116.36-16.62L116.36-16.62Q116.53-16.62 116.68-16.62L116.68-16.62Q121.6-16.56 121.63-10.26L121.63-10.26 121.63 0 118.89 0 118.89-9.91Q118.89-13.38 117.06-14.05L117.06-14.05Q116.5-14.23 115.83-14.23L115.83-14.23Q114.08-14.23 112.27-12.62L112.27-12.62Q111.87-12.25 111.37-11.75L111.37-11.75 111.37 0ZM131.41 0.38L131.41 0.38Q127.77 0.38 125.58-2.25L125.58-2.25Q123.66-4.58 123.66-8.11L123.66-8.11Q123.66-12.3 126.34-14.75L126.34-14.75Q128.38-16.62 130.98-16.62L130.98-16.62Q134.91-16.62 136.54-13.32L136.54-13.32Q137.42-11.49 137.42-9.01L137.42-9.01Q137.42-8.22 137.3-7.46L137.3-7.46 126.37-7.46Q126.54-4.08 128.88-2.59L128.88-2.59Q130.13-1.78 131.76-1.78L131.76-1.78Q133.95-1.81 135.82-3.06L135.82-3.06 136.81-1.28Q134.24 0.38 131.41 0.38ZM126.34-9.42L126.34-9.42 135.03-9.42Q135.03-13.47 132.29-14.29L132.29-14.29Q131.67-14.46 131-14.46L131-14.46Q128.7-14.46 127.36-12.42L127.36-12.42Q126.51-11.14 126.34-9.42Z" transform="translate(-2.9700000286102295, 21.899999618530273)"></path></g> </g></g> </g></g><defs v-gra="od"></defs></g></svg>